<svg xmlns="http://www.w3.org/2000/svg" xmlns:xlink="http://www.w3.org/1999/xlink" viewBox="0 0 170.78 57.18"><defs><style>.cls-1{fill:url(#radial-gradient);}.cls-2{fill:url(#radial-gradient-2);}.cls-3{fill:url(#radial-gradient-3);}.cls-4{fill:url(#radial-gradient-4);}.cls-5{fill:url(#radial-gradient-5);}.cls-6{fill:url(#radial-gradient-6);}.cls-7{fill:url(#radial-gradient-7);}.cls-8{fill:url(#radial-gradient-8);}.cls-10,.cls-14,.cls-9{fill:none;}.cls-10{clip-path:url(#clip-path);}.cls-11{fill:#1e5686;}.cls-12{isolation:isolate;}.cls-13{fill:#fff;}.cls-14{stroke:#fff;stroke-miterlimit:10;stroke-width:1.02px;}.cls-15{clip-path:url(#clip-path-2);}.cls-16{fill:url(#Nueva_muestra_de_degradado_1);}.cls-17{clip-path:url(#clip-path-3);}.cls-18{fill:#94c4e4;}.cls-19{clip-path:url(#clip-path-4);}.cls-20{fill:#2b73b4;}.cls-21{clip-path:url(#clip-path-5);}.cls-22{clip-path:url(#clip-path-6);}.cls-23{fill:url(#Nueva_muestra_de_degradado_2);}.cls-24{clip-path:url(#clip-path-7);}.cls-25{fill:#26536e;}.cls-26{mix-blend-mode:soft-light;}.cls-27{clip-path:url(#clip-path-8);}.cls-28{clip-path:url(#clip-path-9);}.cls-29{mask:url(#mask);}.cls-30{fill:url(#radial-gradient-9);}.cls-31{clip-path:url(#clip-path-10);}.cls-32{mask:url(#mask-2);}.cls-33{fill:url(#radial-gradient-10);}.cls-34{clip-path:url(#clip-path-11);}.cls-35{mask:url(#mask-3);}.cls-36{fill:url(#radial-gradient-11);}.cls-37{clip-path:url(#clip-path-12);}.cls-38{mask:url(#mask-4);}.cls-39{fill:url(#radial-gradient-12);}.cls-40{clip-path:url(#clip-path-13);}.cls-41{mask:url(#mask-5);}.cls-42{fill:url(#radial-gradient-13);}.cls-43{clip-path:url(#clip-path-14);}.cls-44{mask:url(#mask-6);}.cls-45{fill:url(#radial-gradient-14);}.cls-46{clip-path:url(#clip-path-15);}.cls-47{mask:url(#mask-7);}.cls-48{fill:url(#radial-gradient-15);}.cls-49{clip-path:url(#clip-path-16);}.cls-50{mask:url(#mask-8);}.cls-51{fill:url(#radial-gradient-16);}.cls-52{mix-blend-mode:overlay;}.cls-53{clip-path:url(#clip-path-17);}</style><radialGradient id="radial-gradient" cx="14651.95" cy="-24766.33" r="0.23" gradientTransform="translate(2519.72 -4032.48) rotate(180) scale(0.16)" gradientUnits="userSpaceOnUse"><stop offset="0" stop-color="gray"/><stop offset="0.01" stop-color="#828282"/><stop offset="0.34" stop-color="#b7b7b7"/><stop offset="0.63" stop-color="#dedede"/><stop offset="0.86" stop-color="#f6f6f6"/><stop offset="1" stop-color="#fff"/></radialGradient><radialGradient id="radial-gradient-2" cx="1596.96" cy="-2930.4" r="0.23" gradientTransform="translate(63103.01 -115522.43) rotate(180) scale(39.43)" xlink:href="#radial-gradient"/><radialGradient id="radial-gradient-3" cx="1728.33" cy="-3152.36" r="0.23" gradientTransform="translate(19873.67 -36005.12) rotate(180) scale(11.42)" xlink:href="#radial-gradient"/><radialGradient id="radial-gradient-4" cx="1775.3" cy="-3219.4" r="0.23" gradientTransform="translate(16835.03 -30253) rotate(180) scale(9.4)" xlink:href="#radial-gradient"/><radialGradient id="radial-gradient-5" cx="1899.45" cy="-3414.02" r="0.23" gradientTransform="translate(11876.26 -21058.59) rotate(180) scale(6.17)" xlink:href="#radial-gradient"/><radialGradient id="radial-gradient-6" cx="1652.51" cy="-3021.6" r="0.23" gradientTransform="translate(32660.91 -59451.97) rotate(180) scale(19.68)" xlink:href="#radial-gradient"/><radialGradient id="radial-gradient-7" cx="1605.56" cy="-2943.18" r="0.23" gradientTransform="translate(54762.71 -100103.06) rotate(180) scale(34.02)" xlink:href="#radial-gradient"/><radialGradient id="radial-gradient-8" cx="1588" cy="-2915.33" r="0.23" gradientTransform="translate(74843 -137124.65) rotate(180) scale(47.04)" xlink:href="#radial-gradient"/><clipPath id="clip-path"><path class="cls-9" d="M150.66,26.17a14.82,14.82,0,0,1-2.45,1.62,17.32,17.32,0,0,1-16.08-1.29"/></clipPath><clipPath id="clip-path-2" transform="translate(0 14.06)"><path class="cls-9" d="M134.46,28l-.37-.2c.35.2.66.35.89.46l-.52-.26M155,20.41v0Zm0,0h0l0,0a0,0,0,0,0,0,0m-28-1.54a.25.25,0,0,0,0-.07.64.64,0,0,0,0,.07m20.12,4c.69-4.74-4.23-9.7-10-9.7a10.6,10.6,0,0,0-6.47,2.28l-.23.18A7.82,7.82,0,0,0,129.14,17a5,5,0,0,0-.52.82l-.2.42-.07.21a5.59,5.59,0,0,0,1.1,5.33l0,0a13.54,13.54,0,0,0,1,1.19c.33.35.35.37,1,1a11.62,11.62,0,0,0,1,.8c.33.24.34.25,1,.68l.63.36a5.45,5.45,0,0,1-3-5.07l0-.14v-.16a4.41,4.41,0,0,1,.89-2l.15-.17a6.86,6.86,0,0,1,8.42-1.87c5,2.28,5.61,8,1.05,9.69a6.33,6.33,0,0,0,5.45-5.17m-19-14.79a4.52,4.52,0,0,0-.23.45Zm24.56,14.2c3-7.52-3.49-17.09-13.51-17.09A18.34,18.34,0,0,0,132,6.74l-.38.18a12,12,0,0,0-2.39,1.42,8.78,8.78,0,0,0-1.07,1l-.43.53-.2.28a5.82,5.82,0,0,0-.86,2.16c-.08.49-.14,1.15-.19,1.65a15.64,15.64,0,0,0,.22,3.58c.08.38.2.87.29,1.25a5,5,0,0,1,.57-4l.18-.26.19-.27a9.91,9.91,0,0,1,3.57-2.71l.39-.17a23.07,23.07,0,0,1,6.71-1.89c9.83-.95,17.17,9.87,11.38,16.78a10.77,10.77,0,0,0,2.67-3.91M147.81,1.5h0m0,0h0m0,0-.05,0,.05,0h0m-.05,0-.47-.22.47.22m7.36,18.76c3.56-9.11-3.36-19.46-14.5-19.46a19.93,19.93,0,0,0-4.17.46l-.4.1a11.84,11.84,0,0,0-2.57,1A8.3,8.3,0,0,0,132.3,3l-.39.31A14.14,14.14,0,0,0,130,5.25a14.34,14.34,0,0,0-1.58,2.26l-.3.58a9.31,9.31,0,0,1,.66-.9L129,6.9l.29-.29a12.59,12.59,0,0,1,5-2.53l.5-.13c17.16-4.4,23.09,9.26,20.28,16.43l.05-.14M137.78.42l.8-.16c-.3,0-.56.11-.8.16m5.44-.29A12.77,12.77,0,0,0,141.45,0a15.84,15.84,0,0,0-2.22.14l-.65.12A13.61,13.61,0,0,1,140,.1l.42,0a16,16,0,0,1,6.87,1.18l-.2-.09C146.71,1,146.71,1,146,.75c-.43-.14-.43-.14-1.26-.35a13,13,0,0,0-1.48-.27"/></clipPath><linearGradient id="Nueva_muestra_de_degradado_1" x1="1543.34" y1="-2862.81" x2="1543.51" y2="-2862.81" gradientTransform="matrix(0, -184.43, 184.43, 0, 528118.03, 284667.43)" gradientUnits="userSpaceOnUse"><stop offset="0" stop-color="#c1dba7"/><stop offset="0" stop-color="#c1dbaa"/><stop offset="0" stop-color="#c2ddb3"/><stop offset="0" stop-color="#c3dfc3"/><stop offset="0" stop-color="#c4e2da"/><stop offset="0" stop-color="#c6e7f7"/><stop offset="0" stop-color="#c6e7fa"/><stop offset="1" stop-color="#2b73b4"/></linearGradient><clipPath id="clip-path-3" transform="translate(0 14.06)"><path class="cls-9" d="M143.22.13A13.21,13.21,0,0,1,144.7.4c.44.1.47.11,1.26.35.38.13.4.14,1.12.42l.73.33c4.47,2.28,7.52,6.7,7.4,10.74C153.93,2.33,143.15.42,143,.41l-.27,0A7,7,0,0,0,141,.52,4.25,4.25,0,0,0,140,.8l-.41.19-.19.11a2.8,2.8,0,0,0-.75.66c-2.21,2.8,3.31,7.16,7.54,6.89,3.23-.21,4-2.91,1.48-5.08a7.79,7.79,0,0,1,1,1c3.24,3.84.25,8-5.42,7.47-6.15-.52-12.88-6.29-8.39-10.34l.27-.19.29-.19a8.22,8.22,0,0,1,2.3-.91c.43-.1,1-.2,1.45-.28A16.49,16.49,0,0,1,141.45,0a13.4,13.4,0,0,1,1.77.13"/></clipPath><clipPath id="clip-path-4" transform="translate(0 14.06)"><path class="cls-9" d="M132.22,3.09l-.31.25A14.09,14.09,0,0,0,130,5.25a14.42,14.42,0,0,0-1.58,2.26l-.53,1c-3,7.29,10.43,14.83,19.64,11.05,4-1.63,6-4.94,5.52-8.83-.66,8.73-14.85,8-21,.76-1.09-1.28-3.32-4.61-.58-7.75l.23-.24ZM132.3,3l-.06.05h0Z"/></clipPath><clipPath id="clip-path-5" transform="translate(0 14.06)"><path class="cls-9" d="M126.74,14.56c1.9,8.53,20.53,15,27.41,4.15-.18.41-.35.78-.51,1.1-5.88,11.18-24.24,7-26.63-1-.11-.39-.22-.92-.31-1.32a15.93,15.93,0,0,1-.22-3.58c0-.5.13-1.15.19-1.65a5.93,5.93,0,0,0,.07,2.27"/></clipPath><clipPath id="clip-path-6" transform="translate(0 14.06)"><path class="cls-9" d="M150.66,26.17A15.3,15.3,0,0,1,135,28.26c-.16-.07-.36-.18-.52-.26-.34-.17-.34-.17-1-.56-.33-.21-.33-.21-1-.68a10,10,0,0,1-1-.8,12.37,12.37,0,0,1-1-1,13.76,13.76,0,0,1-1-1.19l0,0c4,5.16,14.36,7.38,21.21,2.4"/></clipPath><linearGradient id="Nueva_muestra_de_degradado_2" x1="4067.15" y1="32.79" x2="4086.56" y2="22.13" gradientTransform="matrix(-0.48, -0.88, -0.88, 0.48, 2126.19, 3587.9)" gradientUnits="userSpaceOnUse"><stop offset="0" stop-color="#86aad1"/><stop offset="0.07" stop-color="#90b1d5"/><stop offset="0.19" stop-color="#acc4df"/><stop offset="0.34" stop-color="#d7e2ef"/><stop offset="0.36" stop-color="#cedcec"/><stop offset="0.43" stop-color="#a7c1dd"/><stop offset="0.48" stop-color="#8fb0d4"/><stop offset="0.52" stop-color="#86aad1"/><stop offset="0.71" stop-color="#2b73b4"/><stop offset="0.93" stop-color="#1e5686"/><stop offset="1" stop-color="#123657"/></linearGradient><clipPath id="clip-path-7" transform="translate(0 14.06)"><path class="cls-11" d="M131.7,25.91a10.94,10.94,0,0,1-2.25-2.14l0,0a13.76,13.76,0,0,0,1,1.19,12.37,12.37,0,0,0,1,1,10,10,0,0,0,1,.8c.66.47.66.47,1,.68.66.39.66.39,1,.56.16.08.36.19.52.26a15.3,15.3,0,0,0,15.68-2.09,13.72,13.72,0,0,1-3,1.64A15.34,15.34,0,0,1,135,28l-.52-.26a10,10,0,0,1-1-.57c-.33-.21-.33-.21-1-.67a9,9,0,0,1-.77-.62m-5-8.62a14,14,0,0,1-.23-2.52,13.88,13.88,0,0,0,.23,2.75c.09.4.2.93.31,1.32,2.39,8,20.75,12.15,26.63,1,.16-.32.33-.69.51-1.1l-.32.48c-.07.13-.13.26-.19.38-5.88,11.18-24.24,7-26.63-1-.11-.39-.22-.92-.31-1.32m-.1-4.15c0-.32,0-.6.07-.85,0,.16,0,.33-.07.51v.34m20.9,6.21c-8.28,3.41-19.94-2.34-20.06-8.84-.16,6.59,11.68,12.52,20.06,9.08,3.62-1.49,5.65-4.37,5.6-7.81,0,3.34-2.06,6.12-5.6,7.57m-4.19-7.53c-4.7-.4-9.74-3.87-9.85-7.29-.12,3.49,5,7.11,9.85,7.52,4.12.36,6.82-1.72,6.75-4.36-.08,2.52-2.75,4.47-6.75,4.13m5.42-7.24a7.79,7.79,0,0,0-1-1,3.74,3.74,0,0,1,1.5,2.56,2.75,2.75,0,0,0-.35-1.41l-.11-.14M132.22,3.09l-.31.25c-.4.35-.67.59-.88.79a4.72,4.72,0,0,0-.85,2.8,4.9,4.9,0,0,1,1.31-3.16l.23-.24ZM132.3,3l-.06.05h0ZM142.77.16h-.45A7.43,7.43,0,0,0,141,.28a5.85,5.85,0,0,0-.93.28l-.41.2-.19.11a3.05,3.05,0,0,0-.75.65,2.29,2.29,0,0,0-.5,1.55,2.25,2.25,0,0,1,.5-1.31,2.8,2.8,0,0,1,.75-.66l.19-.11L140,.8A4.25,4.25,0,0,1,141,.52a7,7,0,0,1,1.82-.13l.27,0c.11,0,10.89,1.92,12.17,11.83a2.67,2.67,0,0,0,0-.4V12C153.93,2.1,143.15.19,143,.18l-.27,0"/></clipPath><clipPath id="clip-path-8" transform="translate(0 14.06)"><rect class="cls-9" x="126.51" y="2.53" width="27.63" height="26.67"/></clipPath><clipPath id="clip-path-9" transform="translate(0 14.06)"><polygon class="cls-9" points="132.24 3.08 132.3 3.03 132.22 3.09 132.24 3.08"/></clipPath><mask id="mask" x="132.22" y="17.09" width="0.08" height="0.06" maskUnits="userSpaceOnUse"><g transform="translate(0 14.06)"><rect class="cls-1" x="132.22" y="3.03" width="0.08" height="0.06"/></g></mask><radialGradient id="radial-gradient-9" cx="14651.95" cy="-24766.33" r="0.23" gradientTransform="translate(2519.72 -4018.42) rotate(180) scale(0.16)" gradientUnits="userSpaceOnUse"><stop offset="0" stop-color="#d7e5b3"/><stop offset="0.04" stop-color="#d9e6b7"/><stop offset="0.46" stop-color="#eef4de"/><stop offset="0.79" stop-color="#fafcf6"/><stop offset="1" stop-color="#fff"/></radialGradient><clipPath id="clip-path-10" transform="translate(0 14.06)"><path class="cls-9" d="M152.58,12.75c-2.33,6.83-14.94,5.7-20.6-1-.9-1.06-2.59-3.54-1.57-6.14-.83,2.52.78,4.88,1.66,5.91,5.59,6.62,18,7.8,20.51,1.23"/></clipPath><mask id="mask-2" x="129.39" y="19.67" width="23.19" height="13.97" maskUnits="userSpaceOnUse"><g transform="translate(0 14.06)"><rect class="cls-2" x="129.39" y="5.61" width="23.19" height="13.97"/></g></mask><radialGradient id="radial-gradient-10" cx="1596.96" cy="-2930.4" r="0.23" gradientTransform="translate(63103.01 -115508.37) rotate(180) scale(39.43)" xlink:href="#radial-gradient-9"/><clipPath id="clip-path-11" transform="translate(0 14.06)"><path class="cls-9" d="M131.49,3.77a3.47,3.47,0,0,0-.3.37,12,12,0,0,0-1.31,1.34,15.67,15.67,0,0,0-1.58,2.26l-.53,1s0,.09,0,.14c0-.13.09-.25.14-.37l.53-1A14.42,14.42,0,0,1,130,5.25a14.09,14.09,0,0,1,1.94-1.91l.31-.25-.5.44Z"/></clipPath><mask id="mask-3" x="127.72" y="17.15" width="4.5" height="5.81" maskUnits="userSpaceOnUse"><g transform="translate(0 14.06)"><rect class="cls-3" x="127.72" y="3.09" width="4.5" height="5.81"/></g></mask><radialGradient id="radial-gradient-11" cx="1728.33" cy="-3152.36" r="0.23" gradientTransform="translate(19873.68 -35991.05) rotate(180) scale(11.42)" xlink:href="#radial-gradient-9"/><clipPath id="clip-path-12" transform="translate(0 14.06)"><path class="cls-9" d="M149,5.26a4.53,4.53,0,0,0-1.3-1.69,7.79,7.79,0,0,1,1,1,4.44,4.44,0,0,1,1.07,4.56A4.29,4.29,0,0,0,149,5.26"/></clipPath><mask id="mask-4" x="147.69" y="17.63" width="2.65" height="5.56" maskUnits="userSpaceOnUse"><g transform="translate(0 14.06)"><rect class="cls-4" x="147.69" y="3.57" width="2.65" height="5.56"/></g></mask><radialGradient id="radial-gradient-12" cx="1775.3" cy="-3219.4" r="0.23" gradientTransform="translate(16835.02 -30238.95) rotate(180) scale(9.4)" xlink:href="#radial-gradient-9"/><clipPath id="clip-path-13" transform="translate(0 14.06)"><path class="cls-9" d="M153,11.25a3.86,3.86,0,0,0,.06-.49,8.18,8.18,0,0,1-.42,3.94,8,8,0,0,0,.36-3.45"/></clipPath><mask id="mask-5" x="152.6" y="24.82" width="0.61" height="3.94" maskUnits="userSpaceOnUse"><g transform="translate(0 14.06)"><rect class="cls-5" x="152.6" y="10.76" width="0.61" height="3.94"/></g></mask><radialGradient id="radial-gradient-13" cx="1899.45" cy="-3414.02" r="0.23" gradientTransform="translate(11876.28 -21044.52) rotate(180) scale(6.17)" xlink:href="#radial-gradient-9"/><clipPath id="clip-path-14" transform="translate(0 14.06)"><path class="cls-9" d="M146.21,8.65A3.07,3.07,0,0,0,149,7.07c-.28,1-1.29,1.71-2.91,1.81-4,.25-9.06-3.56-7.85-6.35-.85,2.76,4.08,6.36,7.94,6.12"/></clipPath><mask id="mask-6" x="137.06" y="16.59" width="11.97" height="6.6" maskUnits="userSpaceOnUse"><g transform="translate(0 14.06)"><rect class="cls-6" x="137.06" y="2.53" width="11.97" height="6.6"/></g></mask><radialGradient id="radial-gradient-14" cx="1652.51" cy="-3021.6" r="0.23" gradientTransform="translate(32660.92 -59437.91) rotate(180) scale(19.68)" xlink:href="#radial-gradient-9"/><clipPath id="clip-path-15" transform="translate(0 14.06)"><path class="cls-10" d="M132.13,26.5l-.65-.54a12.37,12.37,0,0,1-1-1,13.76,13.76,0,0,1-1-1.19l0,0"/></clipPath><mask id="mask-7" x="129.45" y="37.83" width="21.21" height="7.38" maskUnits="userSpaceOnUse"><g transform="translate(0 14.06)"><rect class="cls-7" x="129.45" y="23.77" width="21.21" height="7.38"/></g></mask><radialGradient id="radial-gradient-15" cx="1605.57" cy="-2943.18" r="0.23" gradientTransform="translate(54762.73 -100088.87) rotate(180) scale(34.02)" xlink:href="#radial-gradient-9"/><clipPath id="clip-path-16" transform="translate(0 14.06)"><path class="cls-9" d="M126.66,14.8a5.84,5.84,0,0,1-.15-1.27c0-.41.11-.87.16-1.24a5.93,5.93,0,0,0,.07,2.27c1.9,8.53,20.53,15,27.41,4.15-.05.1-.09.2-.13.3-6.91,10.76-25.47,4.29-27.36-4.21"/></clipPath><mask id="mask-8" x="126.51" y="26.35" width="27.63" height="17.48" maskUnits="userSpaceOnUse"><g transform="translate(0 14.06)"><rect class="cls-8" x="126.51" y="12.29" width="27.63" height="17.48"/></g></mask><radialGradient id="radial-gradient-16" cx="1588" cy="-2915.33" r="0.23" gradientTransform="translate(74843 -137110.59) rotate(180) scale(47.04)" xlink:href="#radial-gradient-9"/><clipPath id="clip-path-17" transform="translate(0 14.06)"><rect class="cls-9" x="138.14" y="1.5" width="21.47" height="21.47"/></clipPath></defs><g class="cls-12"><g id="Capa_2" data-name="Capa 2"><g id="header"><path class="cls-13" d="M.11,10.42l.51-.31c.36.66.78,1,1.25,1A1.19,1.19,0,0,0,2.43,11a1,1,0,0,0,.41-.38,1,1,0,0,0,.14-.5,1,1,0,0,0-.21-.59,4.69,4.69,0,0,0-1-1,5.55,5.55,0,0,1-.93-.82,1.53,1.53,0,0,1-.32-.92,1.39,1.39,0,0,1,.19-.72,1.28,1.28,0,0,1,.53-.5A1.43,1.43,0,0,1,2,5.38a1.58,1.58,0,0,1,.79.21,2.67,2.67,0,0,1,.78.77L3,6.73a2.68,2.68,0,0,0-.57-.59A1.08,1.08,0,0,0,1.93,6a.8.8,0,0,0-.59.22.74.74,0,0,0-.23.54,1,1,0,0,0,.08.38,1.44,1.44,0,0,0,.3.4q.12.12.78.6a4.33,4.33,0,0,1,1.06,1,1.6,1.6,0,0,1,.29.9,1.52,1.52,0,0,1-.49,1.13,1.68,1.68,0,0,1-1.21.49,1.75,1.75,0,0,1-1-.3A2.62,2.62,0,0,1,.11,10.42Z" transform="translate(0 14.06)"/><path class="cls-13" d="M5.85,5.53h.6v6h-.6Z" transform="translate(0 14.06)"/><path class="cls-13" d="M8.67,10.42l.51-.31c.36.66.78,1,1.25,1A1.26,1.26,0,0,0,11,11a1,1,0,0,0,.4-.38,1,1,0,0,0,.14-.5,1,1,0,0,0-.21-.59,4.59,4.59,0,0,0-1-1,5.78,5.78,0,0,1-.94-.82,1.53,1.53,0,0,1-.32-.92,1.49,1.49,0,0,1,.19-.72,1.34,1.34,0,0,1,.53-.5,1.46,1.46,0,0,1,.74-.19,1.56,1.56,0,0,1,.79.21,2.81,2.81,0,0,1,.79.77l-.49.37A2.68,2.68,0,0,0,11,6.14,1,1,0,0,0,10.5,6a.84.84,0,0,0-.6.22.74.74,0,0,0-.23.54,1,1,0,0,0,.08.38,1.44,1.44,0,0,0,.3.4q.12.12.78.6a4.61,4.61,0,0,1,1.07,1,1.68,1.68,0,0,1,.29.9,1.53,1.53,0,0,1-.5,1.13,1.67,1.67,0,0,1-1.2.49,1.76,1.76,0,0,1-1-.3A2.72,2.72,0,0,1,8.67,10.42Z" transform="translate(0 14.06)"/><path class="cls-13" d="M14.43,6.12V5.53h3.29v.59H16.38v5.41h-.61V6.12Z" transform="translate(0 14.06)"/><path class="cls-13" d="M20,5.53h3.44v.59H20.6V8h2.81v.59H20.6V11h2.81v.58H20Z" transform="translate(0 14.06)"/><path class="cls-13" d="M25.33,11.53l.86-6h.1l2.44,4.93,2.42-4.93h.09l.87,6h-.59l-.6-4.29L28.8,11.53h-.15L26.5,7.21l-.59,4.32Z" transform="translate(0 14.06)"/><path class="cls-13" d="M35.81,5.53l2.8,6H38l-.95-2H34.44l-.94,2h-.67l2.84-6Zm-.07,1.28L34.71,9h2Z" transform="translate(0 14.06)"/><path class="cls-13" d="M16.34,16.52l4.54,9.74H19.83l-1.53-3.2H14.1l-1.52,3.2H11.5l4.6-9.74Zm-.13,2.07-1.66,3.53h3.33Z" transform="translate(0 14.06)"/><path class="cls-13" d="M23.8,16.52h1.94a11.61,11.61,0,0,1,2.2.13,2.56,2.56,0,0,1,1.41.85,2.42,2.42,0,0,1,.55,1.61,2.6,2.6,0,0,1-.38,1.4,2.23,2.23,0,0,1-1.07.91,4.72,4.72,0,0,1-1.92.32L30,26.26H28.83l-3.5-4.52h-.55v4.52h-1Zm1,.95v3.32h1.67a4,4,0,0,0,1.45-.19,1.52,1.52,0,0,0,.73-.59,1.67,1.67,0,0,0,.26-.91,1.56,1.56,0,0,0-.27-.89,1.42,1.42,0,0,0-.69-.57,4.11,4.11,0,0,0-1.44-.18Z" transform="translate(0 14.06)"/><path class="cls-13" d="M32.45,17.47v-.95h5.34v.95H35.62v8.79h-1V17.47Z" transform="translate(0 14.06)"/><path class="cls-13" d="M45.19,16.27a5.09,5.09,0,0,1,3.71,1.48,5.18,5.18,0,0,1,0,7.27,4.94,4.94,0,0,1-3.63,1.49A5,5,0,0,1,41.61,25a4.9,4.9,0,0,1-1.49-3.59,5.24,5.24,0,0,1,.68-2.61A5,5,0,0,1,42.65,17,5,5,0,0,1,45.19,16.27Zm.05.95a3.94,3.94,0,0,0-2.05.57,4,4,0,0,0-1.52,1.51,4.27,4.27,0,0,0-.54,2.13,4.08,4.08,0,0,0,4.11,4.13,4.17,4.17,0,0,0,2.1-.55,3.93,3.93,0,0,0,1.5-1.5,4.26,4.26,0,0,0,.54-2.12,4.1,4.1,0,0,0-.54-2.1,4,4,0,0,0-1.52-1.5A4.1,4.1,0,0,0,45.24,17.22Z" transform="translate(0 14.06)"/><path class="cls-13" d="M63.1,18.16l-.75.71a5.78,5.78,0,0,0-1.79-1.21,4.76,4.76,0,0,0-1.89-.42,4.54,4.54,0,0,0-2.18.56,4.16,4.16,0,0,0-1.61,1.53,3.93,3.93,0,0,0-.57,2,4.06,4.06,0,0,0,.59,2.09A4.22,4.22,0,0,0,56.53,25a4.75,4.75,0,0,0,2.28.56,3.86,3.86,0,0,0,2.54-.85,3.25,3.25,0,0,0,1.23-2.2h-3.1v-.94h4.2a4.91,4.91,0,0,1-1.34,3.59,4.8,4.8,0,0,1-3.56,1.33,5.34,5.34,0,0,1-4.28-1.84,4.9,4.9,0,0,1-1.21-3.28A5.08,5.08,0,0,1,55.89,17a5.58,5.58,0,0,1,2.75-.68,6.08,6.08,0,0,1,2.33.45A6.92,6.92,0,0,1,63.1,18.16Z" transform="translate(0 14.06)"/><path class="cls-13" d="M66.94,16.52h1.94a11.69,11.69,0,0,1,2.2.13,2.56,2.56,0,0,1,1.41.85A2.42,2.42,0,0,1,73,19.11a2.6,2.6,0,0,1-.38,1.4,2.23,2.23,0,0,1-1.07.91,4.72,4.72,0,0,1-1.92.32l3.51,4.52H72l-3.5-4.52h-.55v4.52h-1Zm1,.95v3.32h1.67A4,4,0,0,0,71,20.61a1.52,1.52,0,0,0,.73-.59,1.67,1.67,0,0,0,.26-.91,1.56,1.56,0,0,0-.27-.89,1.42,1.42,0,0,0-.69-.57,4.11,4.11,0,0,0-1.44-.18Z" transform="translate(0 14.06)"/><path class="cls-13" d="M80.46,16.52,85,26.26H84l-1.53-3.2h-4.2l-1.52,3.2H75.62l4.6-9.74Zm-.12,2.07-1.67,3.53H82Z" transform="translate(0 14.06)"/><path class="cls-13" d="M87.87,16.52h4.88v.95h-3.9v3.06h3.9v.95h-3.9v4.78h-1Z" transform="translate(0 14.06)"/><path class="cls-13" d="M95.67,16.52h1v9.74h-1Z" transform="translate(0 14.06)"/><path class="cls-13" d="M109.31,18.33l-.77.59A4.39,4.39,0,0,0,107,17.66a4.53,4.53,0,0,0-2-.42,4.3,4.3,0,0,0-2.16.56,4,4,0,0,0-1.54,1.5,4.21,4.21,0,0,0-.54,2.12,4,4,0,0,0,1.22,3,4.24,4.24,0,0,0,3.08,1.19,4.36,4.36,0,0,0,3.43-1.6l.77.58A5,5,0,0,1,107.49,26a5.7,5.7,0,0,1-2.44.51,5.07,5.07,0,0,1-4-1.7,5.13,5.13,0,0,1-1.24-3.47,4.82,4.82,0,0,1,1.5-3.6A5.15,5.15,0,0,1,105,16.27a5.49,5.49,0,0,1,2.46.54A4.78,4.78,0,0,1,109.31,18.33Z" transform="translate(0 14.06)"/><path class="cls-13" d="M117.26,16.27a5.07,5.07,0,0,1,3.7,1.48,4.91,4.91,0,0,1,1.49,3.64,5.07,5.07,0,0,1-5.11,5.12A5,5,0,0,1,113.68,25a4.86,4.86,0,0,1-1.49-3.59,5.14,5.14,0,0,1,.68-2.61,5,5,0,0,1,4.39-2.56Zm0,.95a4.19,4.19,0,0,0-3.56,2.08,4.17,4.17,0,0,0-.55,2.13,4.1,4.1,0,0,0,4.11,4.13,4.12,4.12,0,0,0,2.1-.55,4,4,0,0,0,1.51-1.5,4.26,4.26,0,0,0,.54-2.12,4.1,4.1,0,0,0-.54-2.1,3.94,3.94,0,0,0-1.53-1.5A4.07,4.07,0,0,0,117.3,17.22Z" transform="translate(0 14.06)"/><path class="cls-13" d="M.83,39.83V35.59h.1l2.81,3.25V35.59h.42v4.24H4.07l-2.8-3.21v3.21Z" transform="translate(0 14.06)"/><path class="cls-13" d="M20.15,35.66l2,4.23h-.46L21,38.5H19.17l-.66,1.39H18l2-4.23Zm-.06.9-.72,1.53h1.44Z" transform="translate(0 14.06)"/><path class="cls-13" d="M39.73,36.44l-.33.26a1.93,1.93,0,0,0-.66-.55,2,2,0,0,0-.85-.18,1.88,1.88,0,0,0-.94.24,1.7,1.7,0,0,0-.67.66,1.78,1.78,0,0,0-.24.92,1.74,1.74,0,0,0,.53,1.29,1.82,1.82,0,0,0,1.34.52,1.88,1.88,0,0,0,1.49-.7l.33.26a2.1,2.1,0,0,1-.79.62,2.41,2.41,0,0,1-1,.22,2.18,2.18,0,0,1-2.3-2.25,2.07,2.07,0,0,1,.66-1.56,2.2,2.2,0,0,1,1.63-.64,2.37,2.37,0,0,1,1.07.24A2,2,0,0,1,39.73,36.44Z" transform="translate(0 14.06)"/><path class="cls-13" d="M55,35.66h.43v4.23H55Z" transform="translate(0 14.06)"/><path class="cls-13" d="M72.8,35.55a2.19,2.19,0,0,1,1.61.64,2.25,2.25,0,0,1,0,3.16,2.14,2.14,0,0,1-1.57.65,2.19,2.19,0,0,1-1.6-.64,2.16,2.16,0,0,1-.64-1.57,2.24,2.24,0,0,1,.29-1.13,2.1,2.1,0,0,1,.81-.81A2.14,2.14,0,0,1,72.8,35.55Zm0,.41a1.69,1.69,0,0,0-.89.25,1.74,1.74,0,0,0-.66.66,1.78,1.78,0,0,0-.24.92,1.74,1.74,0,0,0,.53,1.28,1.75,1.75,0,0,0,1.26.52,1.79,1.79,0,0,0,.91-.24,1.74,1.74,0,0,0,.66-.66,1.94,1.94,0,0,0,0-1.83,1.79,1.79,0,0,0-.66-.65A1.76,1.76,0,0,0,72.82,36Z" transform="translate(0 14.06)"/><path class="cls-13" d="M88.75,40V35.72h.09L91.66,39V35.72h.42V40H92l-2.8-3.21V40Z" transform="translate(0 14.06)"/><path class="cls-13" d="M108.06,35.72,110,40h-.45l-.67-1.39h-1.82L106.43,40H106l2-4.24Zm-.06.9-.72,1.54h1.45Z" transform="translate(0 14.06)"/><path class="cls-13" d="M124.55,35.72H125v3.83h1.63V40h-2Z" transform="translate(0 14.06)"/><line class="cls-14" x1="0.33" y1="44.34" x2="125.58" y2="44.34"/><path class="cls-13" d="M9.53,18.33l-.77.59a4.39,4.39,0,0,0-1.53-1.26,4.53,4.53,0,0,0-2-.42,4.3,4.3,0,0,0-2.16.56,4,4,0,0,0-1.54,1.5A4.21,4.21,0,0,0,1,21.42a4,4,0,0,0,1.22,3,4.24,4.24,0,0,0,3.08,1.19A4.36,4.36,0,0,0,8.76,24l.77.58A5,5,0,0,1,7.71,26a5.7,5.7,0,0,1-2.44.51,5.07,5.07,0,0,1-4-1.7A5.13,5.13,0,0,1,0,21.34a4.82,4.82,0,0,1,1.5-3.6,5.15,5.15,0,0,1,3.76-1.47,5.49,5.49,0,0,1,2.46.54A4.78,4.78,0,0,1,9.53,18.33Z" transform="translate(0 14.06)"/><g class="cls-15"><rect class="cls-16" x="122.19" y="-7.14" width="40.69" height="42.1" transform="translate(61.75 146.22) rotate(-61.23)"/></g><g class="cls-17"><rect class="cls-18" x="131.39" y="-7.66" width="22.97" height="27.85" transform="translate(68.62 142.56) rotate(-61.23)"/></g><g class="cls-19"><rect class="cls-20" x="123.4" y="-4.25" width="31.62" height="34.9" transform="translate(60.64 142.94) rotate(-61.23)"/></g><g class="cls-21"><rect class="cls-11" x="125.43" y="5" width="29.72" height="33.29" transform="translate(53.8 148.26) rotate(-61.23)"/></g><g class="cls-22"><rect class="cls-23" x="131.71" y="16.39" width="16.68" height="22.14" transform="translate(48.58 151.07) rotate(-61.23)"/></g><path class="cls-11" d="M131.7,25.91a10.94,10.94,0,0,1-2.25-2.14l0,0a13.76,13.76,0,0,0,1,1.19,12.37,12.37,0,0,0,1,1,10,10,0,0,0,1,.8c.66.47.66.47,1,.68.66.39.66.39,1,.56.16.08.36.19.52.26a15.3,15.3,0,0,0,15.68-2.09,13.72,13.72,0,0,1-3,1.64A15.34,15.34,0,0,1,135,28l-.52-.26a10,10,0,0,1-1-.57c-.33-.21-.33-.21-1-.67a9,9,0,0,1-.77-.62m-5-8.62a14,14,0,0,1-.23-2.52,13.88,13.88,0,0,0,.23,2.75c.09.4.2.93.31,1.32,2.39,8,20.75,12.15,26.63,1,.16-.32.33-.69.51-1.1l-.32.48c-.07.13-.13.26-.19.38-5.88,11.18-24.24,7-26.63-1-.11-.39-.22-.92-.31-1.32m-.1-4.15c0-.32,0-.6.07-.85,0,.16,0,.33-.07.51v.34m20.9,6.21c-8.28,3.41-19.94-2.34-20.06-8.84-.16,6.59,11.68,12.52,20.06,9.08,3.62-1.49,5.65-4.37,5.6-7.81,0,3.34-2.06,6.12-5.6,7.57m-4.19-7.53c-4.7-.4-9.74-3.87-9.85-7.29-.12,3.49,5,7.11,9.85,7.52,4.12.36,6.82-1.72,6.75-4.36-.08,2.52-2.75,4.47-6.75,4.13m5.42-7.24a7.79,7.79,0,0,0-1-1,3.74,3.74,0,0,1,1.5,2.56,2.75,2.75,0,0,0-.35-1.41l-.11-.14M132.22,3.09l-.31.25c-.4.35-.67.59-.88.79a4.72,4.72,0,0,0-.85,2.8,4.9,4.9,0,0,1,1.31-3.16l.23-.24ZM132.3,3l-.06.05h0ZM142.77.16h-.45A7.43,7.43,0,0,0,141,.28a5.85,5.85,0,0,0-.93.28l-.41.2-.19.11a3.05,3.05,0,0,0-.75.65,2.29,2.29,0,0,0-.5,1.55,2.25,2.25,0,0,1,.5-1.31,2.8,2.8,0,0,1,.75-.66l.19-.11L140,.8A4.25,4.25,0,0,1,141,.52a7,7,0,0,1,1.82-.13l.27,0c.11,0,10.89,1.92,12.17,11.83a2.67,2.67,0,0,0,0-.4V12C153.93,2.1,143.15.19,143,.18l-.27,0" transform="translate(0 14.06)"/><g class="cls-24"><rect class="cls-25" x="120.4" y="-4.45" width="40.87" height="40.05" transform="translate(59.41 145.59) rotate(-61.23)"/></g><g class="cls-26"><g class="cls-27"><g class="cls-28"><g class="cls-29"><rect class="cls-30" x="132.22" y="17.09" width="0.08" height="0.06"/></g></g><g class="cls-31"><g class="cls-32"><rect class="cls-33" x="129.39" y="19.67" width="23.19" height="13.97"/></g></g><g class="cls-34"><g class="cls-35"><rect class="cls-36" x="127.72" y="17.15" width="4.5" height="5.81"/></g></g><g class="cls-37"><g class="cls-38"><rect class="cls-39" x="147.69" y="17.63" width="2.65" height="5.56"/></g></g><g class="cls-40"><g class="cls-41"><rect class="cls-42" x="152.6" y="24.82" width="0.61" height="3.94"/></g></g><g class="cls-43"><g class="cls-44"><rect class="cls-45" x="137.06" y="16.59" width="11.97" height="6.6"/></g></g><g class="cls-46"><g class="cls-47"><rect class="cls-48" x="129.45" y="37.83" width="21.21" height="7.38"/></g></g><g class="cls-49"><g class="cls-50"><rect class="cls-51" x="126.51" y="26.35" width="27.63" height="17.48"/></g></g></g></g></g></g></g></svg>