<svg xmlns="http://www.w3.org/2000/svg" viewBox="0 0 323.28 57.08"><defs><style>.cls-1{fill:#fff;}.cls-2{fill:#f4f6f5;}.cls-3{fill:#ffc25f;}</style></defs><g id="Capa_2" data-name="Capa 2"><g id="header"><path class="cls-1" d="M93.11,39.29v2c0,5.9-1,14.17-11.89,14.17-9.56,0-11.58-6-11.58-13.84v-26c0-8,3.61-13.24,11.71-13.24,9.68,0,11.53,6.41,11.53,13.56v2.31h-8V15c0-3.42-.8-5.37-3.56-5.37s-3.6,1.87-3.6,5.4V42.31c0,3.36.67,6,3.69,6,2.87,0,3.64-2.27,3.64-6.11V39.29Z"/><path class="cls-1" d="M116.47,47.28c0,2.29,0,6.06.14,7.44H110c-.15-.68-.4-2.15-.46-2.67-1.24,2.23-3.2,3.23-6,3.23-5.46,0-7.66-5.06-7.66-10.54v-.63c0-8.94,6-11.32,12.57-11.32h.83V28.15c0-2.84-.34-4.44-2.54-4.44s-2.64,1.67-2.64,3.92v.59H97v-.46c0-5.26,2-9.91,10-9.91,7,0,9.46,3.87,9.46,9.73Zm-7-9h-1.2c-3.3,0-5.47,1.25-5.47,5.77v.57c0,2.56.93,4.39,3.18,4.39,2.42,0,3.49-1.67,3.49-6.57Z"/><path class="cls-1" d="M122.62,30.71c0-6,.06-8.59-.07-12.3h6.85c.07.7.2,3.93.2,5.88,1.44-4.91,4.63-6.41,8-6.42v8.9c-4.14,0-7.75,1.06-7.75,8.5V54.72h-7.23Z"/><path class="cls-1" d="M140.13,18.41H144V9.7h7.22v8.71h4.55v6.34h-4.55V46.21c0,1.72.23,3.09,2.42,3.09a7.81,7.81,0,0,0,2-.21v5.45a11.07,11.07,0,0,1-4.4.72c-4.54,0-7.21-1.46-7.21-7.75V24.75h-3.86Z"/><path class="cls-1" d="M179.6,29.56v14c0,7.78-3.87,11.77-10.72,11.77-7.07,0-10.56-4.09-10.56-11.72V29.26c0-7.86,4.46-11.41,10.77-11.41C175.67,17.85,179.6,21.88,179.6,29.56Zm-14-.42V43.81c0,2.94.89,5.07,3.46,5.07s3.35-1.79,3.35-5.19V29.08c0-2.8-.75-4.83-3.4-4.83C166.6,24.25,165.55,25.93,165.55,29.14Z"/><path class="cls-1" d="M207.47,39.29v2c0,5.9-1,14.17-11.89,14.17-9.56,0-11.58-6-11.58-13.84v-26c0-8,3.61-13.24,11.71-13.24,9.68,0,11.53,6.41,11.53,13.56v2.31h-8V15c0-3.42-.8-5.37-3.56-5.37s-3.6,1.87-3.6,5.4V42.31c0,3.36.67,6,3.69,6s3.64-2.27,3.64-6.11V39.29Z"/><path class="cls-1" d="M211.66,18.41h7.22V54.72h-7.22Zm.06-12.59H219v7.72h-7.23Z"/><path class="cls-1" d="M245.85,44.11c0,5.34,0,8.7.07,10.61H239a27,27,0,0,1-.26-3.45c-1.28,3.18-3.8,4-6.77,4-3.39,0-7.22-1.62-7.22-9.45V18.41H232V44c0,3.33,1,4.85,3.13,4.85,2.36,0,3.51-1.48,3.51-6.21V18.41h7.22Z"/><path class="cls-1" d="M272.21,5.82V44.65c0,5.53,0,8.1.07,10.07h-6.9c-.13-.92-.27-2.88-.27-3.46a6.4,6.4,0,0,1-6.4,4c-6.52,0-7.78-5.21-7.78-12.24V28.82c0-6.31,2.41-11,8.33-11,2.43,0,4.73.71,5.72,2.56V5.82Zm-14,23.45V43.62c0,3.36.79,5.18,3.28,5.18,3,0,3.53-2.64,3.53-6.79V30.84c0-3.93-.36-6.51-3.44-6.51C259,24.33,258.17,26.23,258.17,29.27Z"/><path class="cls-1" d="M296.77,47.28c0,2.29,0,6.06.14,7.44h-6.6c-.15-.68-.4-2.15-.46-2.67-1.24,2.23-3.2,3.23-6,3.23-5.45,0-7.66-5.06-7.66-10.54v-.63c0-8.94,6-11.32,12.58-11.32h.83V28.15c0-2.84-.34-4.44-2.54-4.44s-2.64,1.67-2.64,3.92v.59h-7.1v-.46c0-5.26,2-9.91,10-9.91,7,0,9.46,3.87,9.46,9.73Zm-7-9h-1.2c-3.3,0-5.47,1.25-5.47,5.77v.57c0,2.56.93,4.39,3.18,4.39,2.42,0,3.49-1.67,3.49-6.57Z"/><path class="cls-1" d="M323.21,5.82V44.65c0,5.53,0,8.1.07,10.07h-6.9c-.13-.92-.27-2.88-.27-3.46a6.4,6.4,0,0,1-6.4,4c-6.52,0-7.78-5.21-7.78-12.24V28.82c0-6.31,2.41-11,8.33-11,2.42,0,4.73.71,5.72,2.56V5.82Zm-14,23.45V43.62c0,3.36.79,5.18,3.28,5.18,3,0,3.53-2.64,3.53-6.79V30.84c0-3.93-.36-6.51-3.44-6.51C310,24.33,309.17,26.23,309.17,29.27Z"/><path class="cls-2" d="M26.61,8.71v5.82a13.48,13.48,0,0,0-8.35,8.89H10.32V8.71Z"/><path class="cls-2" d="M18.92,24.3H9.44V7.82H27.5v7.33l-.59.21a12.57,12.57,0,0,0-7.8,8.31ZM11.2,22.54h6.41a14.38,14.38,0,0,1,8.12-8.62V9.59H11.2Z"/><path class="cls-3" d="M56.75,8.71V23.42H44.05a13.46,13.46,0,0,0-8.95-9.09V8.71Z"/><path class="cls-3" d="M57.64,24.3H43.39l-.19-.63a12.48,12.48,0,0,0-8.36-8.49L34.22,15V7.82H57.64ZM44.7,22.54H55.87V9.59H36V13.7A14.26,14.26,0,0,1,44.7,22.54Z"/><path class="cls-3" d="M26.61,39.81V56.05A29.25,29.25,0,0,1,2.28,31.71H18.52A13.41,13.41,0,0,0,26.61,39.81Z"/><path class="cls-3" d="M27.5,57.08l-1-.16A30,30,0,0,1,1.4,31.85l-.15-1H19.14l.21.59A12.5,12.5,0,0,0,26.91,39l.59.21ZM3.33,32.6A28.21,28.21,0,0,0,25.73,55V40.42a14.25,14.25,0,0,1-7.82-7.82Z"/><path class="cls-2" d="M36,56.75H34.22V39.36l.62-.19a12.66,12.66,0,0,0,8.09-7.66l.21-.58H57.39V32.7h-13A14.46,14.46,0,0,1,36,40.65Z"/><rect class="cls-2" x="1.53" y="22.54" width="8.79" height="1.77"/><polygon class="cls-2" points="1.77 16.5 0 16.5 0 0 17.94 0 17.94 1.77 1.77 1.77 1.77 16.5"/><rect class="cls-2" x="25.73" y="0.88" width="1.77" height="7.82"/><rect class="cls-3" x="34.22" y="0.88" width="1.77" height="7.82"/></g></g></svg>