<svg xmlns="http://www.w3.org/2000/svg" xmlns:xlink="http://www.w3.org/1999/xlink" viewBox="0 0 107.56 59.19"><defs><style>.cls-1{fill:url(#Degradado_sin_nombre_15);}.cls-2{font-size:35px;fill:#fff;font-family:AvenirNext-Bold, Avenir Next;font-weight:700;}.cls-3{fill:none;stroke:#fff;stroke-miterlimit:10;stroke-width:0.81px;}</style><linearGradient id="Degradado_sin_nombre_15" x1="1.57" y1="46.03" x2="102.47" y2="9.3" gradientUnits="userSpaceOnUse"><stop offset="0" stop-color="#fff"/><stop offset="0.1" stop-color="#fff" stop-opacity="0.98"/><stop offset="0.22" stop-color="#fff" stop-opacity="0.92"/><stop offset="0.36" stop-color="#fff" stop-opacity="0.82"/><stop offset="0.51" stop-color="#fff" stop-opacity="0.68"/><stop offset="0.66" stop-color="#fff" stop-opacity="0.5"/><stop offset="0.82" stop-color="#fff" stop-opacity="0.28"/><stop offset="0.98" stop-color="#fff" stop-opacity="0.03"/><stop offset="1" stop-color="#fff" stop-opacity="0"/></linearGradient></defs><title>logo IDEE</title><g id="Capa_2" data-name="Capa 2"><g id="cabecera"><path class="cls-1" d="M88,.57C77.18.57,63.88,3,50.82,6.87,20.4,15.8-1.83,31.67,1.27,42.25c1.48,5,8.56,8.15,19.93,8.77,11.54.63,26.06-1.42,40.88-5.76,20.33-6,37-15,44.9-23.55l0,.36c-8.09,8.76-24.13,18.15-44.59,24.15-13.15,3.85-26.08,5.91-36.94,5.91-1.46,0-2.89,0-4.27-.11C9.32,51.37,1.92,48,.31,42.53-2.95,31.42,19.58,15,50.54,5.91,65.46,1.54,80.09-.52,91.75.11c.74,0,1.47.1,2.18.16C93.93.27,89.4.57,88,.57Z"/><text class="cls-2" transform="translate(7.22 42.18)">IDEE</text><polyline class="cls-3" points="94.31 5.07 94.67 2.67 98.6 9.63 106.48 8.3 101.08 14.19 104.77 21.27 97.5 17.95 91.91 23.66 92.82 15.72 85.67 12.16 93.5 10.57 94.31 5.07"/></g></g></svg>